# xmcd
#
# Track frame offsets:
#	150
#	14277
#	27072
#	37947
#	50192
#	61782
#	74205
#	84447
#	93705
#	100795
#	111475
#	125225
#	138545
#	153515
#	167815
#
# Disc length: 2390 seconds
#
# Revision: 3
# Processed by: cddbd v1.5.1PL2 Copyright (c) Steve Scherf et al.
# Submitted via: audiograbber 1.82.02
#
DISCID=d609540f
DTITLE=Various Artist - American Country Classics
DYEAR=1900
DGENRE=Country
TTITLE0=George Jones - A Good Year For The Roses
TTITLE1=Faron Young - It's Four In The Morning
TTITLE2=Patsy Cline - I Can't Forget You
TTITLE3=Willy Nelson - Shelter Of Your Arms
TTITLE4=Dolly Parton - Making Believe
TTITLE5=Don Williams - Ruby Tuesday
TTITLE6=Jim Reeves - Just Call Me Lonesome
TTITLE7=Frankie Laine - Rawhide
TTITLE8=Conway Twitty - Treat Me Mean, Treat Me Cruel
TTITLE9=Jerry Wallace - Primose Lane
TTITLE10=Willy Nelson - Home Is Where You're Happy
TTITLE11=Don Williams - Where Do We Go From Here
TTITLE12=Anne Murray - There Goes My Everything
TTITLE13=Freddy Fender - Wasted Days And Wasted Night
TTITLE14=Jerry Wallace - There She Goes
EXTD=
EXTT0=
EXTT1=
EXTT2=
EXTT3=
EXTT4=
EXTT5=
EXTT6=
EXTT7=
EXTT8=
EXTT9=
EXTT10=
EXTT11=
EXTT12=
EXTT13=
EXTT14=
PLAYORDER=
